<?xml version="1.0" standalone="no"?>
<!DOCTYPE svg PUBLIC "-//W3C//DTD SVG 20010904//EN"
 "http://www.w3.org/TR/2001/REC-SVG-20010904/DTD/svg10.dtd">
<svg version="1.0" xmlns="http://www.w3.org/2000/svg"
 width="723.000000pt" height="723.000000pt" viewBox="0 0 723.000000 723.000000"
 preserveAspectRatio="xMidYMid meet">
<metadata>
Created by potrace 1.14, written by Peter Selinger 2001-2017
</metadata>
<g transform="translate(0.000000,723.000000) scale(0.100000,-0.100000)"
fill="#000000" stroke="none">
<path d="M0 3615 l0 -3615 3615 0 3615 0 0 3615 0 3615 -3615 0 -3615 0 0
-3615z m4271 2817 c185 -38 375 -117 516 -214 107 -73 249 -212 323 -316 333
-468 326 -1094 -18 -1552 -160 -213 -371 -365 -632 -453 -214 -73 -141 -70
-1652 -74 -980 -3 -1362 -1 -1377 7 l-21 11 0 1298 c0 714 3 1301 7 1305 13
12 2791 1 2854 -12z m714 -2997 c412 -66 746 -298 954 -660 184 -321 218 -729
89 -1079 -165 -449 -542 -765 -1018 -853 -88 -16 -231 -17 -1825 -21 -952 -1
-1740 0 -1752 3 l-23 5 0 1304 c0 716 3 1306 7 1309 3 4 787 7 1742 7 1477 0
1749 -2 1826 -15z"/>
</g>
</svg>
